<svg width="100%" height="100%" viewBox="0 0 54255 15750" fill-rule="evenodd" clip-rule="evenodd" stroke-linejoin="round" stroke-miterlimit="2">
  <path fill="#000" fill-rule="nonzero" d="M37639.3 8346.06l10.668-.04c228.612 0 469.807 58.162 614.372 155.661 141.527 95.448 262.665 212.49 302.159 377.061l88.373-495.876 806.795-.001-506.908 2870.74c-44.637 267.822-136.31 508.885-275.268 723.32-138.235 213.33-321.746 383.082-550.431 509.373-229.087 126.51-495.883 189.355-800.192 189.355-422.437 0-748.342-99.552-976.597-302.252-216.524-192.288-333.333-450.605-351.973-774.281h805.983c18.448 113.692 71.87 203.593 159.437 270.142 94.005 71.441 227.031 108.862 399.995 108.862 196.742 0 364.564-57.06 503.77-170.279 138.467-112.623 231.552-291.765 275.878-539.144l94.734-515.783c-101.366 168.944-259.66 280.327-433.671 378.311-174.435 98.227-431.11 138.958-651.269 138.958-298.819 0-539.177-100.02-720.482-301.468-183.064-203.404-273.114-483.566-273.114-839.52 0-130.73 12.048-261.463 36.132-392.196l.013-.073c51.499-284.969 148.243-533.051 290.69-744.149 141.524-209.725 313.582-370.169 516.489-481.001 199.124-108.765 410.596-164.026 634.417-165.724zm-17865.6-.04c225.181 0 455.216 56.011 601.414 155.154 143.248 97.149 275.602 216.205 315.121 377.568l88.373-495.876h812.015l-505.731 2850.48h-811.438l90.344-480.24c-101.366 168.944-271.309 284.085-445.32 382.069h-.001c-174.43 98.227-419.426 135.017-639.585 135.017-305.622 0-547.846-97.21-725.844-293.679-179.546-198.18-267.752-473.937-267.752-826.251 0-141.254 12.046-279.062 36.159-413.425 51.491-284.886 148.233-532.959 290.675-744.051 141.524-209.725 313.583-370.169 516.489-481.001 202.28-110.489 417.303-165.764 645.081-165.764zm30662.4 0c373.2 0 666.325 97.75 878.37 296.224 210.794 197.307 315.255 461.596 315.255 792.122 0 78.86-8.656 174.845-25.783 287.96-11.875 71.125-30.246 139.647-55.133 205.564l-2007.58.001h-39.274l-3.906 39.079c-7.23 72.315-10.741 121.134-10.741 146.441 0 173.322 43.668 302.591 126.519 389.252 83.469 87.307 207.898 133.161 374.836 133.161 138.758 0 262.445-35.857 371.202-107.109 100.684-65.963 175.621-149.651 225.078-250.837h861.853c-115.421 284.354-303.62 517.685-564.446 700.105-278.884 195.047-604.924 292.208-977.908 292.208-366.306 0-657.588-100.481-872.959-303.98-214.668-202.836-320.666-483.931-320.666-842.27 0-109.998 10.342-226.865 30.958-350.606 51.401-291.126 157.389-544.664 318.374-760.454 160.659-215.347 359.738-380.315 597.306-494.824 238.125-114.78 497.692-172.037 778.645-172.037zm-23292.9 0c373.2 0 666.325 97.75 878.37 296.224 210.794 197.307 315.255 461.596 315.255 792.122 0 78.86-8.656 174.845-25.783 287.96-11.875 71.125-30.246 139.647-55.133 205.564l-2046.85.001-3.909 39.076c-7.234 72.317-10.745 121.137-10.745 146.444 0 173.322 43.668 302.591 126.52 389.252 83.469 87.307 207.899 133.161 374.839 133.161 138.754 0 262.446-35.858 371.198-107.109 100.684-65.963 175.625-149.651 225.079-250.837h861.852c-115.421 284.354-303.62 517.685-564.446 700.105-278.884 195.047-604.924 292.208-977.908 292.208-366.302 0-657.584-100.481-872.959-303.98-214.664-202.836-320.666-483.931-320.666-842.27 0-109.998 10.346-226.866 30.958-350.606 51.402-291.126 157.389-544.664 318.374-760.454 160.659-215.347 359.742-380.315 597.306-494.824 238.125-114.78 497.692-172.037 778.645-172.037zm-1830.96-921.188l-674.211 3808.51h-811.927l85.659-480.649c-101.384 168.975-251.201 293.042-423.555 391.044-172.663 98.184-436.096 126.451-656.159 126.451-298.819 0-539.181-100.02-720.486-301.468-183.061-203.404-273.114-483.566-273.114-839.52 0-130.73 12.048-261.463 36.132-392.196l.013-.073c51.499-284.969 148.243-533.05 290.693-744.149 141.521-209.725 313.583-370.169 516.485-481.001 202.284-110.489 417.307-165.764 645.085-165.764 225.166 0 456.94 58.575 601.451 156.037 141.526 95.448 270.309 212.196 309.803 376.768l262.029-1453.99h812.102zm16133 921.188c373.201 0 666.326 97.75 878.37 296.224 210.799 197.307 315.255 461.596 315.255 792.122 0 78.86-8.651 174.845-25.779 287.96-11.874 71.125-30.249 139.647-55.136 205.564l-2046.85.001-3.909 39.076c-7.233 72.317-10.744 121.137-10.744 146.444 0 173.322 43.668 302.591 126.519 389.252 83.47 87.307 207.9 133.161 374.839 133.161 138.755 0 262.446-35.858 371.198-107.109 100.684-65.963 175.625-149.651 225.082-250.837h861.852c-115.423 284.354-303.619 517.685-564.449 700.105-278.884 195.047-604.924 292.208-977.908 292.208-366.301 0-657.583-100.481-872.959-303.98-214.664-202.836-320.666-483.931-320.666-842.27 0-109.998 10.347-226.866 30.959-350.606 51.405-291.126 157.393-544.664 318.374-760.454 160.658-215.347 359.741-380.315 597.309-494.824h.001c238.124-114.78 497.688-172.037 778.64-172.037zm-6906.25 0c252.374 0 474.982 47.383 667.672 142.874 190.5 94.41 338.893 231.764 445.1 412.148 106.866 181.503 159.812 396.207 159.812 643.865 0 102.969-10.345 214.511-30.926 334.631-51.318 283.811-158.853 530.1-322.991 738.696-164.203 208.675-366.895 369.449-608.068 482.341-241.695 113.13-501.4 169.616-779.09 169.616-255.814 0-481.012-48.232-675.431-145.44-192.31-96.157-341.681-233.551-447.961-412.366-106.825-179.738-159.721-393.52-159.721-641.082 0-106.363 10.328-217.871 30.907-334.527 51.329-283.935 158.912-531.174 323.119-741.564 164.091-210.242 368.36-370.902 612.786-482.007 245.295-111.497 506.901-167.185 784.792-167.185zm9474.44 1838.75l-.235 1.466c-7.446 52.136-10.961 87.533-10.961 106.151 0 89.803 28.311 153.951 79.628 194.575 47.773 37.819 124.74 59.38 232.226 59.38h232.51l-121.512 687.004h-374.194c-283.137 0-501.851-57.264-655.22-175.239-150.3-115.616-222.571-306.688-222.571-570.953 0-109.441 8.496-210.332 25.595-302.674l.037-.197 198.473-1130.2h-389.276l121.191-671.213 389.722.001 126.333-721.159h817.283l-126.334 721.159h584.376l-116.532 671.212h-589.405l-201.134 1130.69zm9203.13-1801.9l-92.535 534.639c140.159-174.343 305.058-312.838 494.784-415.393 171.811-92.869 431.611-141.609 613.314-149.681l-153.069 875.359-226.73.001c-248.778 0-450.633 54.104-606.122 160.203-157.784 107.661-259.08 288.467-299.968 544.573l-230.452 1300.78h-817.331l500.624-2850.48h817.485zm-20398-784.325l-111.018 629.104h-1010.72l-526.396 3005.7h-817.279l517.48-2954.82-42.745-50.882h-948.421l111.017-629.104h2828.08zm-14782.6 26.32l-632.256 3608.48h-806.783l444.545-2546.04-1327.87 2546.04h-710.946l-436.322-2526.07-442.061 2526.07h-817.274l632.255-3608.48h1028.71l550.561 2539.86 80.335 11.901s1279.3-2299.92 1419.38-2551.76h1017.72zm29383.9 726.421c270.783 0 482.76 76.277 634.866 231.729v.001c152.491 155.837 227.13 375.071 227.13 656.591 0 102.811-10.318 210.767-30.883 323.861l-.023.122-293.751 1669.76h-806.823s268.759-1541.56 270.117-1549.36c11.025-62.48 16.442-117.618 16.442-165.399 0-164.786-47.732-290.613-139.703-378.752l-.001-.001c-91.525-87.708-218.73-133.135-382.708-133.135-175.376 0-327.329 51.608-456.058 154.22-127.539 101.66-219.759 248.156-275.213 440.389l-.653 2.265-283.663 1629.77h-817.213l669.061-3808.51h817.192l-254.158 1433.45c111.865-166.105 295.306-281.69 473.276-378.304 178.004-96.629 415.769-128.699 632.766-128.699zm-12991.4 730.4v-43.396c-182.519 0-347.501 64.783-494.634 195.154-145.145 128.609-240.956 317.254-285.048 567.126l-.083.47c-14.584 94.791-21.635 161.93-21.635 201.834 0 185.969 52.226 326.651 152.802 423.432 100.834 97.03 230.853 146.355 390.669 146.355 182.518 0 347.505-64.783 494.633-195.153 145.177-128.634 240.929-315.505 285.033-561.746l.108-.606c10.964-73.115 16.363-140.183 16.363-201.811 0-185.73-52.054-327.222-152.5-425.773-101.012-99.107-229.421-149.282-385.708-149.282v43.396zm-14460-32.866c-204.094 0-381.25 66.874-531.535 200.461-149.01 132.458-244.56 316.004-285.03 551.48l-.018.107c-10.98 65.867-16.4 126.149-16.4 180.952 0 185.511 53.634 328.804 157.751 431.024 104.19 102.296 243.018 154.555 417.299 154.555 200.498 0 376.914-68.564 529.148-205.946 150.763-136.053 246.929-317.778 287.376-545.761l.003-.019c11.004-62.348 16.456-121.015 16.456-176.008 0-185.291-53.478-329.39-157.465-433.377-104.264-104.259-243.189-157.468-417.585-157.468zm17871 0c-204.235 0-380.568 66.96-529.105 200.639-147.125 132.416-241.736 315.9-282.197 551.301l-.019.108c-10.966 65.792-16.4 127.827-16.4 186.214 0 181.885 53.548 323.452 157.751 425.761 104.19 102.296 243.018 154.556 417.299 154.556 200.503 0 376.919-68.564 529.149-205.946 150.762-136.053 246.929-317.777 287.379-545.761l.004-.02c11-62.348 16.456-121.015 16.456-176.007 0-185.408-54.432-329.6-160.38-433.652-106.023-104.13-245.757-157.193-419.937-157.193zm-14317.9 0c-204.094 0-381.25 66.874-531.539 200.46v.001c-149.01 132.458-244.556 316.004-285.03 551.479l-.019.109c-10.975 65.868-16.4 126.149-16.4 180.951 0 185.511 53.639 328.803 157.752 431.023 104.189 102.296 243.017 154.556 417.303 154.556 200.498 0 376.914-68.564 529.144-205.946 150.767-136.053 246.933-317.778 287.38-545.761l.003-.019c11.004-62.348 16.456-121.015 16.456-176.008 0-185.291-53.482-329.39-157.469-433.377-104.259-104.259-243.184-157.468-417.581-157.468zm2795.13 586.866h1183.94l6.328-35.853c11.031-62.504 16.452-117.666 16.452-165.463 0-155.776-50.521-271.835-147.883-349.721-94.974-75.98-214.378-114.788-358.738-114.788-175.008 0-329.496 52.268-463.546 156.529h-.001c-133.317 103.695-243.181 309.131-295.026 509.111l58.473.185zm14302.1 0h1183.95l6.326-35.856c11.027-62.503 16.451-117.664 16.451-165.46 0-155.776-50.525-271.835-147.886-349.72-94.97-75.98-214.379-114.789-358.734-114.789-175.013 0-329.496 52.268-463.551 156.528v.001c-133.318 103.695-226.711 255.029-278.561 455.009l42.007 54.287zm8990.8 0h1183.94l6.328-35.853c11.031-62.504 16.452-117.666 16.452-165.463 0-155.776-50.521-271.835-147.883-349.721-94.974-75.98-214.378-114.788-358.738-114.788-175.008 0-329.496 52.268-463.546 156.529h-.001c-133.317 103.695-240.156 308.795-292.001 508.775l55.448.521z"/>
  <path fill="#000" d="M1402.22 5286.25l523.683-1498.21h4723.04l-278.284 1544.98h-3329.75L2567.434 6682.5l3.525-2.917c497.934-412.291 1072.15-526.266 1530.98-526.266 1514.03 0 2154.27 779.112 2154.27 1981.94a2204.944 2204.944 0 01-1.079 67.792c14.929-56.979 28.421-112.462 35.746-152.237 159.671-866.93 1149.65-2717.8 3369.55-2717.8 458.821 0 1053.49 80.591 1551.39 492.779 561.529 464.858 641.079 1189.22 640.959 1651.53l-1696.31-.467c1.634-173.645-72.57-719.462-780.991-697.362-987.534 30.816-1354.95 1001.27-1413.68 2024.86-30.938 538.367 292.275 1115.24 938.82 1115.24 280.05 0 876.355-21.283 1130.83-621.771h-773.196l224.462-1247.01h2369.36l-573.492 3167.55h-1122.46l49.895-548.713h-24.895s-303.542 382.517-963.005 590.588c-659.55 207.954-1878.66 170.854-2550.21-648.854-352.308-429.98-501.825-942.655-501.804-1456.96.017-108.629 3.367-249.462 7.292-376.583-108.355 447.762-326.6 942.292-675.625 1368.32-512.971 626.079-1413.81 1210.85-2863.89 1225.5-606.629 6.041-1400.14-93.284-1942.5-500.104-505.938-379.513-787.1-1033.96-661.629-1922.87h1820.78c-41.875 816.337 741.387 924.742 1133.25 924.742 646.579-.001 1390.75-557.692 1390.75-1430.68 0-945.208-680.242-991.02-1083.21-991.02-708.733 0-924.479 301.458-1195.38 574.545H440.867l961.371-2740.03h-.004zm12133-714.808c-695.154-483.909-2887.25-2465.58-6246.71 561.058 2707.22-2113.73 4996.46 7.917 5166.04 161.667 345.188-232.155 853.313-572.796 1080.69-722.725h-.025zm2183.39-1384.6c-1041.27-802.763-4505.42-2814.19-8148.42 1173.62 3187.1-3015.11 6273.83-296.788 6563.88-91.996 409.391-275.346 1315.05-903.854 1584.53-1081.63h.008zm3108.12-1833.04c-1132.8-923.8-3891.2-1972.9-6882.08-901.317-1426.25 511.004-2927.4 1503.68-4212.79 3247.93 1531.27-1543.68 2808.05-2075.64 4074.15-2208.96 2462.98-259.358 4383.75 1241.23 4623.33 1410.4 511.733-344.358 2060.33-1325.78 2397.38-1548.06h.012z"/>
  <path fill="#000" fill-rule="nonzero" d="M12844.5 13681.5v-.35h5076.21v430.625l-9296.17.333-1377.52 1389.56H.02v-430.605h7051.5l1377.41-1389.57h4415.56z"/>
</svg>