<?xml version="1.0" standalone="no"?>
<!DOCTYPE svg PUBLIC "-//W3C//DTD SVG 20010904//EN"
 "http://www.w3.org/TR/2001/REC-SVG-20010904/DTD/svg10.dtd">
<svg version="1.0" xmlns="http://www.w3.org/2000/svg"
 width="512.000000pt" height="512.000000pt" viewBox="0 0 512.000000 512.000000"
 preserveAspectRatio="xMidYMid meet">
<metadata>
Created by potrace 1.14, written by Peter Selinger 2001-2017
</metadata>
<g transform="translate(0.000000,512.000000) scale(0.100000,-0.100000)"
fill="#000000" stroke="none">
<path d="M3815 4090 c-441 -27 -897 -213 -1254 -513 -106 -88 -290 -273 -356
-358 l-49 -64 55 50 c457 422 936 576 1465 470 229 -46 486 -154 687 -290 l98
-66 320 207 c175 113 319 207 319 209 0 2 -38 29 -84 59 -243 162 -584 271
-927 296 -79 5 -146 9 -149 8 -3 0 -59 -4 -125 -8z"/>
<path d="M3133 3550 c-298 -42 -643 -221 -903 -469 l-75 -71 73 54 c144 106
335 190 500 222 96 18 297 18 406 -1 197 -35 420 -131 605 -264 l101 -72 207
142 c115 78 209 143 211 144 2 2 -38 31 -89 64 -159 107 -355 191 -544 232
-102 23 -387 34 -492 19z"/>
<path d="M2815 3144 c-134 -21 -300 -79 -430 -151 -79 -44 -250 -157 -260
-172 -3 -6 41 12 97 39 180 85 331 115 513 99 188 -16 369 -84 540 -204 52
-36 97 -70 100 -75 3 -5 71 34 150 87 l145 96 -83 58 c-110 78 -282 163 -392
195 -70 20 -118 26 -220 29 -71 2 -143 1 -160 -1z"/>
<path d="M337 2507 c-108 -309 -197 -566 -197 -570 0 -4 97 -7 216 -7 l216 0
56 51 c32 28 76 60 99 71 89 40 271 40 351 -1 93 -47 135 -161 113 -300 -21
-128 -96 -227 -220 -289 -68 -34 -80 -36 -160 -36 -106 1 -179 23 -234 73 -46
41 -67 84 -67 136 l0 35 -245 0 -245 0 -2 -37 c-7 -191 29 -315 123 -416 116
-128 297 -187 569 -188 304 -1 539 82 718 255 97 93 188 240 228 366 9 30 20
59 24 63 4 5 8 -35 8 -87 0 -118 13 -177 63 -284 50 -108 132 -192 239 -244
101 -50 184 -68 310 -68 170 0 280 35 403 128 37 29 70 52 72 52 2 0 1 -32 -2
-70 l-6 -71 149 3 148 3 73 400 c40 220 72 410 73 423 l0 22 -314 0 -314 0
-12 -72 c-7 -40 -20 -115 -30 -165 l-17 -93 104 0 c56 0 103 -2 103 -5 0 -16
-32 -64 -62 -92 -103 -99 -304 -110 -409 -24 -41 34 -84 117 -93 182 -14 99
23 290 79 405 67 137 170 207 305 208 120 0 195 -52 207 -144 l6 -40 227 0
228 0 -5 63 c-12 152 -58 263 -144 350 -207 207 -648 210 -954 6 -85 -57 -204
-178 -262 -268 -47 -72 -102 -194 -131 -291 l-20 -65 -1 42 c-2 76 -30 197
-61 260 -36 73 -121 155 -195 189 -213 97 -510 78 -689 -45 -25 -17 -47 -31
-50 -31 -4 0 66 208 111 327 l16 43 450 2 450 3 37 203 36 202 -636 0 -635 0
-198 -563z"/>
</g>
</svg>
